<?xml version="1.0" encoding="utf-8"?>
<!-- Generator: Adobe Illustrator 25.2.0, SVG Export Plug-In . SVG Version: 6.00 Build 0)  -->
<svg version="1.1" id="Layer_1" xmlns="http://www.w3.org/2000/svg" xmlns:xlink="http://www.w3.org/1999/xlink" x="0px" y="0px"
	 viewBox="0 0 970 206" style="enable-background:new 0 0 970 206;" xml:space="preserve">
<g id="Layer_2_1_">
	<g id="barcode">
		<rect x="20" y="28" width="6" height="150"/>
		<rect x="29" y="28" width="3" height="150"/>
		<rect x="38" y="28" width="3" height="150"/>
		<rect x="53" y="28" width="3" height="150"/>
		<rect x="62" y="28" width="3" height="150"/>
		<rect x="68" y="28" width="6" height="150"/>
		<rect x="86" y="28" width="6" height="150"/>
		<rect x="104" y="28" width="3" height="150"/>
		<rect x="110" y="28" width="3" height="150"/>
		<rect x="119" y="28" width="3" height="150"/>
		<rect x="134" y="28" width="3" height="150"/>
		<rect x="143" y="28" width="6" height="150"/>
		<rect x="152" y="28" width="3" height="150"/>
		<rect x="161" y="28" width="3" height="150"/>
		<rect x="170" y="28" width="12" height="150"/>
		<rect x="185" y="28" width="3" height="150"/>
		<rect x="191" y="28" width="6" height="150"/>
		<rect x="203" y="28" width="3" height="150"/>
		<rect x="218" y="28" width="12" height="150"/>
		<rect x="236" y="28" width="3" height="150"/>
		<rect x="242" y="28" width="3" height="150"/>
		<rect x="251" y="28" width="3" height="150"/>
		<rect x="260" y="28" width="6" height="150"/>
		<rect x="272" y="28" width="9" height="150"/>
		<rect x="284" y="28" width="3" height="150"/>
		<rect x="299" y="28" width="3" height="150"/>
		<rect x="305" y="28" width="6" height="150"/>
		<rect x="317" y="28" width="6" height="150"/>
		<rect x="326" y="28" width="6" height="150"/>
		<rect x="335" y="28" width="12" height="150"/>
		<rect x="350" y="28" width="3" height="150"/>
		<rect x="359" y="28" width="3" height="150"/>
		<rect x="374" y="28" width="6" height="150"/>
		<rect x="383" y="28" width="3" height="150"/>
		<rect x="395" y="28" width="12" height="150"/>
		<rect x="410" y="28" width="3" height="150"/>
		<rect x="416" y="28" width="3" height="150"/>
		<rect x="422" y="28" width="12" height="150"/>
		<rect x="440" y="28" width="3" height="150"/>
		<rect x="449" y="28" width="3" height="150"/>
		<rect x="455" y="28" width="12" height="150"/>
		<rect x="473" y="28" width="3" height="150"/>
		<rect x="482" y="28" width="6" height="150"/>
		<rect x="500" y="28" width="3" height="150"/>
		<rect x="509" y="28" width="3" height="150"/>
		<rect x="515" y="28" width="6" height="150"/>
		<rect x="524" y="28" width="6" height="150"/>
		<rect x="533" y="28" width="12" height="150"/>
		<rect x="548" y="28" width="6" height="150"/>
		<rect x="563" y="28" width="6" height="150"/>
		<rect x="572" y="28" width="6" height="150"/>
		<rect x="581" y="28" width="3" height="150"/>
		<rect x="590" y="28" width="6" height="150"/>
		<rect x="599" y="28" width="3" height="150"/>
		<rect x="614" y="28" width="12" height="150"/>
		<rect x="629" y="28" width="9" height="150"/>
		<rect x="641" y="28" width="3" height="150"/>
		<rect x="647" y="28" width="3" height="150"/>
		<rect x="656" y="28" width="3" height="150"/>
		<rect x="662" y="28" width="6" height="150"/>
		<rect x="680" y="28" width="3" height="150"/>
		<rect x="695" y="28" width="6" height="150"/>
		<rect x="704" y="28" width="3" height="150"/>
		<rect x="713" y="28" width="6" height="150"/>
		<rect x="725" y="28" width="3" height="150"/>
		<rect x="731" y="28" width="3" height="150"/>
		<rect x="746" y="28" width="3" height="150"/>
		<rect x="755" y="28" width="6" height="150"/>
		<rect x="767" y="28" width="9" height="150"/>
		<rect x="779" y="28" width="3" height="150"/>
		<rect x="794" y="28" width="3" height="150"/>
		<rect x="800" y="28" width="6" height="150"/>
		<rect x="812" y="28" width="3" height="150"/>
		<rect x="824" y="28" width="12" height="150"/>
		<rect x="839" y="28" width="3" height="150"/>
		<rect x="845" y="28" width="12" height="150"/>
		<rect x="860" y="28" width="9" height="150"/>
		<rect x="872" y="28" width="3" height="150"/>
		<rect x="878" y="28" width="3" height="150"/>
		<rect x="884" y="28" width="6" height="150"/>
		<rect x="896" y="28" width="3" height="150"/>
		<rect x="911" y="28" width="6" height="150"/>
		<rect x="926" y="28" width="9" height="150"/>
		<rect x="938" y="28" width="3" height="150"/>
		<rect x="944" y="28" width="6" height="150"/>
	</g>
</g>
</svg>
