<svg id="Layer_3" data-name="Layer 3" xmlns="http://www.w3.org/2000/svg" viewBox="0 0 258.62 290"><defs><style>.cls-1{fill:#0b7db8;}.cls-2{fill:#29a3dc;}.cls-3{fill:#fff;}</style></defs><polygon class="cls-1" points="234.89 266.05 129.31 290 23.74 266.05 0 0 258.62 0 234.89 266.05"/><polygon class="cls-2" points="129.31 276.36 129.31 276.36 222.29 255.27 243.82 13.3 129.31 13.3 129.31 276.36"/><path class="cls-3" d="M154.79,70.31a53.6,53.6,0,0,1,18.39,2.92,41.08,41.08,0,0,1,13.6,7.9,33.23,33.23,0,0,1,8.43,11.54,34.06,34.06,0,0,1,2.88,13.84,45.59,45.59,0,0,1-1.34,11.64,26.62,26.62,0,0,1-4,8.71,25,25,0,0,1-6.52,6.28,38.73,38.73,0,0,1-8.85,4.31q23.17,8,23.17,31.51a43.65,43.65,0,0,1-4,19.35A39.89,39.89,0,0,1,185.78,202a46.32,46.32,0,0,1-15.66,8.18,63.1,63.1,0,0,1-18.58,2.73,65.74,65.74,0,0,1-17.72-2.16,40.57,40.57,0,0,1-13.8-6.7,44.39,44.39,0,0,1-10.58-11.63,78.17,78.17,0,0,1-7.9-16.86l13.22-5.37a14.26,14.26,0,0,1,3.4-1,19.54,19.54,0,0,1,3.3-.29,12.32,12.32,0,0,1,5.51,1.2,8.16,8.16,0,0,1,3.69,3.49q4.31,8,9.14,11.55a18.56,18.56,0,0,0,11.35,3.59,20.76,20.76,0,0,0,8.67-1.68A18.72,18.72,0,0,0,166,182.7a17.82,17.82,0,0,0,3.69-6,19.4,19.4,0,0,0,1.24-6.8,48.34,48.34,0,0,0-.62-8.1,10.51,10.51,0,0,0-3.5-6.17q-2.87-2.6-8.66-4A73.26,73.26,0,0,0,142,150.28V129.79A60.2,60.2,0,0,0,156,128.45a21.72,21.72,0,0,0,8.28-3.69,11.17,11.17,0,0,0,3.88-5.7,26.8,26.8,0,0,0,1-7.38q0-8.24-4-12.69t-12.11-4.45A18.39,18.39,0,0,0,142,98.08a17.65,17.65,0,0,0-3.79,3.83,20.13,20.13,0,0,0-2.53,4.79,13.85,13.85,0,0,1-3.88,6.23,9.78,9.78,0,0,1-6.37,1.91c-.64,0-1.33,0-2.06-.09s-1.49-.16-2.25-.29l-15.71-2.78a52.33,52.33,0,0,1,5.89-18.2,42.91,42.91,0,0,1,25.62-20.63A61.29,61.29,0,0,1,154.79,70.31Z" transform="translate(-20.69 -5)"/></svg>