<svg xmlns="http://www.w3.org/2000/svg" viewBox="0 0 258.62 290"><defs><style>.cls-1{fill:#010101;}.cls-2{fill:#ef3d3c;}.cls-3{fill:#f47965;}.cls-4{fill:#fff;}</style></defs><g id="Layer_2" data-name="Layer 2"><path class="cls-1" d="M119,165.45h-7.21V152.38H99.25v13.07H92v-30.9h7.21v12.91h12.56V134.55H119Z" transform="translate(-20.69 -5)"/><path class="cls-1" d="M146.54,134.55v5.68h-8.69v25.22h-7.17V140.23H122v-5.68Z" transform="translate(-20.69 -5)"/><path class="cls-1" d="M166.13,153c.26.58.51,1.17.75,1.78.24-.62.5-1.23.77-1.81s.54-1.16.82-1.71l7.93-15.63a2.76,2.76,0,0,1,.44-.62,1.36,1.36,0,0,1,.5-.33,1.71,1.71,0,0,1,.62-.11h6.29v30.88h-6.32V147.68c0-.86,0-1.8.13-2.8l-8.19,15.88a2.7,2.7,0,0,1-1,1.13,2.87,2.87,0,0,1-1.47.38h-1a2.87,2.87,0,0,1-1.47-.38,2.76,2.76,0,0,1-1-1.13l-8.23-15.9c.06.49.1,1,.13,1.47s0,.94,0,1.35v17.77h-6.32V134.57h6.29a1.81,1.81,0,0,1,.63.11,1.45,1.45,0,0,1,.5.33,2.76,2.76,0,0,1,.43.62l7.95,15.69C165.6,151.86,165.87,152.42,166.13,153Z" transform="translate(-20.69 -5)"/><path class="cls-1" d="M196.51,159.72H208v5.73H189.34v-30.9h7.17Z" transform="translate(-20.69 -5)"/></g><g id="Layer_1" data-name="Layer 1"><polygon class="cls-2" points="234.89 266.05 129.31 290 23.74 266.05 0 0 258.62 0 234.89 266.05"/><polygon class="cls-3" points="129.31 276.36 129.31 276.36 222.29 255.27 243.83 13.3 129.31 13.3 129.31 276.36"/><path class="cls-4" d="M190,84.1a15.32,15.32,0,0,1-1,5.55,11.15,11.15,0,0,1-3,4.36,13.85,13.85,0,0,1-5.41,2.88,28.19,28.19,0,0,1-8,1H139.27L135.35,121c2.62-.44,5.14-.78,7.56-1s4.79-.34,7.09-.34A52.29,52.29,0,0,1,169.45,123a41,41,0,0,1,14.17,9.14,38.13,38.13,0,0,1,8.67,13.6,47.28,47.28,0,0,1,2.92,16.71,51.28,51.28,0,0,1-4,20.46,47.48,47.48,0,0,1-11.07,15.94,49.39,49.39,0,0,1-16.9,10.39,60.66,60.66,0,0,1-21.5,3.69,57.57,57.57,0,0,1-13-1.43,63.09,63.09,0,0,1-11.59-3.88,62.23,62.23,0,0,1-10-5.66,65.48,65.48,0,0,1-8.33-6.84l9.19-12.26a10,10,0,0,1,3.35-2.92,8.75,8.75,0,0,1,4.12-1,10.07,10.07,0,0,1,5.41,1.58l5.56,3.45a41.62,41.62,0,0,0,7,3.4,28.18,28.18,0,0,0,10,1.53,23.87,23.87,0,0,0,10.15-2,18.17,18.17,0,0,0,6.85-5.37,21.78,21.78,0,0,0,3.83-8,38,38,0,0,0,1.2-9.72q0-10.14-5.75-15.47t-16.28-5.31a49.84,49.84,0,0,0-18.39,3.54l-18.39-5,11.88-69.82H190Z" transform="translate(-20.69 -5)"/></g></svg>