<svg id="Layer_4" data-name="Layer 4" xmlns="http://www.w3.org/2000/svg" viewBox="0 0 215.74 290"><defs><style>.cls-1{fill:#ccc;}.cls-2{fill:#2c70b8;}.cls-3{fill:#ee2524;}</style></defs><path class="cls-1" d="M240.38,253.67c2.47.14,3.84,1.76,4.6,3.83.69,1.9-.4,3.44-1.72,4.74a27.59,27.59,0,0,1-9.1,5.45c-12.3,5.08-25.26,7.56-38.33,9.48-30.91,4.54-62,4.92-93.06,2.7a398.3,398.3,0,0,1-48.18-6,20.87,20.87,0,0,1-7.34-2.71c-3.23-2.06-3.64-4.65-1.07-7.46A18.14,18.14,0,0,1,50,260.44a69.82,69.82,0,0,1,33.2-10.15,13.82,13.82,0,0,1,7.46,1.54,62.82,62.82,0,0,0-19.86,4.51,25.42,25.42,0,0,0-5.95,3.13c-2.8,2.17-2.66,3.86.52,5.38a54.78,54.78,0,0,0,13.15,3.94c20,3.85,40.36,4.51,60.7,4.52,25.13,0,50.18-1.26,75-5.1a101.36,101.36,0,0,0,18.83-4.39,21.69,21.69,0,0,0,5.51-2.75c3-2.2,3.46-4.06,1.79-7.44Z" transform="translate(-42.13 -5)"/><path class="cls-1" d="M117.92,165c-4.57,1.34-8.47,2.47-12.36,3.62A77.92,77.92,0,0,0,94,172.93a22.45,22.45,0,0,0-3.16,1.81c-1.06.73-2.4,1.45-2.13,3,.22,1.36,1.53,1.8,2.67,2.23a43.21,43.21,0,0,0,11.53,2.23c18.06,1.56,36.12.86,54.17-.16a491.11,491.11,0,0,0,55-6.47,66.66,66.66,0,0,1-25.49,10,371.81,371.81,0,0,1-93.77,3.19c-6.61-.61-13.22-1.52-19.51-3.8-2.23-.81-5.18-1.37-5.43-4.23s2.65-3.81,4.75-4.89C86,169,105.6,164.23,117.92,165Z" transform="translate(-42.13 -5)"/><path class="cls-1" d="M196.9,243.23a118.21,118.21,0,0,1-29.59,8.37c-16.61,2.5-33.18,2.48-49.62-1.41-5.11-1.21-10.11-2.8-14.48-5.85-5.32-3.72-5.19-7.67.34-11.1a27.57,27.57,0,0,1,8.13-3.34c-.29,1.62-2.23,2.49-1.36,4.14s2.68,2.28,4.41,2.69c8,1.92,16.29,2.28,24.5,2.71,13.17.7,26.14-1.1,39-3.56a6.58,6.58,0,0,1,5.05.78C187.45,239.21,192,241,196.9,243.23Z" transform="translate(-42.13 -5)"/><path class="cls-1" d="M105.57,197.94a2.68,2.68,0,0,1-.16.51c-4.63,5.55-3.76,8.39,3.51,9.65,11.09,1.94,22.33,2.33,33.57,2.31,15.23,0,30.24-2.07,45.16-4.86a4.46,4.46,0,0,1,4.32,1,35.29,35.29,0,0,0,9.83,5.74,86.22,86.22,0,0,1-12.94,3.49,221.24,221.24,0,0,1-67.25,4.51A87.45,87.45,0,0,1,99.92,216a24.63,24.63,0,0,1-6-2.95c-4-2.84-4.2-6.05-.42-9.13C97,201,101.18,199.48,105.57,197.94Z" transform="translate(-42.13 -5)"/><path class="cls-1" d="M257.87,268.06c-.8,4.83-3.54,7.8-6.94,10.26-6.33,4.59-13.62,7-21.07,8.95-15.45,4.05-31.26,5.77-47.16,6.79a455.79,455.79,0,0,1-58.67,0c-11.59-.74-23.14-1.79-34.38-5a17.5,17.5,0,0,1-6.32-2.75,343.71,343.71,0,0,0,43.3,3.8c29,.78,57.84-.46,86.45-5.59a182.24,182.24,0,0,0,20.78-4.76C242.35,277.21,250.86,274.63,257.87,268.06Z" transform="translate(-42.13 -5)"/><path class="cls-1" d="M212.49,218.62c.43-1.54,1.78-1.75,2.79-2.31,9.29-5.17,18.18-10.85,24.86-19.36,3.43-4.36,5.85-9.19,5.65-14.91-.36-10.36-10.88-18.15-21.45-15.95-1.82.38-3.62.88-5.56,1.35a5.52,5.52,0,0,1,3.29-3c9.68-3.7,19.11-3.59,27.75,2.71,8.21,6,10.27,16,5.48,25.3-2.77,5.37-7,9.44-11.85,12.91-9,6.45-19.27,10.24-29.86,13.22A4.43,4.43,0,0,1,212.49,218.62Z" transform="translate(-42.13 -5)"/><path class="cls-1" d="M180.66,6.57a31.06,31.06,0,0,1,7.19,22.57c-.65,11.09-5.58,20.47-12.09,29.14C168.9,67.41,160.54,75,151.64,82.11c-6.33,5-12.23,10.48-16.92,17.14-7.61,10.81-8.51,22.06-2.48,33.88,3.34,6.55,7.72,12.39,11.85,18.41,2.57,3.75,5.16,7.5,6.78,11.85a209.06,209.06,0,0,1-15.73-14.6c-6.49-6.65-12.71-13.53-17.22-21.74-7.17-13.09-6.2-22.92,3.39-34.38,6.72-8,15-14.38,23.15-20.81,7.74-6.08,15.53-12.08,22.35-19.23C180.14,38.64,184.06,25.5,180.66,6.57Z" transform="translate(-42.13 -5)"/><path class="cls-1" d="M213.15,66.71c-4.09,2.53-7.85,4.77-11.52,7.14-9.28,6-18.49,12.14-26,20.36-4.54,5-8.05,10.39-7.22,17.58a23,23,0,0,0,3.82,9.85c2.48,3.85,5.14,7.59,7.77,11.34,5.9,8.42,6,16.82.17,25.29-3.94,5.73-9.21,10-15,13.83a2,2,0,0,1-2,.41c1.15-1.54,2.43-3,3.46-4.66,5-7.91,4.53-15.89-1.44-23.1-3.71-4.49-7.24-9.07-9.76-14.35Q146.61,112,159.4,96c5.11-6.38,11.56-11.17,18.5-15.33a152.89,152.89,0,0,1,32-14A4.07,4.07,0,0,1,213.15,66.71Z" transform="translate(-42.13 -5)"/><path class="cls-2" d="M238,252.1c2.48.14,3.85,1.76,4.6,3.83.7,1.9-.39,3.44-1.72,4.74a27.55,27.55,0,0,1-9.09,5.45c-12.3,5.08-25.26,7.56-38.33,9.48-30.91,4.54-62,4.92-93.06,2.7a398.3,398.3,0,0,1-48.18-6,21.19,21.19,0,0,1-7.34-2.71c-3.23-2.06-3.64-4.65-1.07-7.46a18.14,18.14,0,0,1,3.84-3.26,69.75,69.75,0,0,1,33.2-10.15,13.82,13.82,0,0,1,7.46,1.54,62.82,62.82,0,0,0-19.86,4.51,25.42,25.42,0,0,0-6,3.13c-2.8,2.17-2.66,3.86.52,5.38a54.84,54.84,0,0,0,13.14,3.94c20.06,3.85,40.37,4.51,60.71,4.52,25.12,0,50.18-1.26,75-5.1a101.55,101.55,0,0,0,18.83-4.39,21.69,21.69,0,0,0,5.51-2.75c3-2.2,3.46-4.06,1.79-7.44Z" transform="translate(-42.13 -5)"/><path class="cls-2" d="M115.55,163.4,103.19,167a77.5,77.5,0,0,0-11.55,4.33,23.53,23.53,0,0,0-3.17,1.8c-1,.74-2.39,1.46-2.13,3,.23,1.36,1.53,1.8,2.67,2.23a43.28,43.28,0,0,0,11.54,2.23c18.06,1.56,36.12.86,54.16-.16a490.84,490.84,0,0,0,55-6.47,66.53,66.53,0,0,1-25.49,10,371.74,371.74,0,0,1-93.76,3.19c-6.61-.61-13.22-1.52-19.52-3.8-2.22-.81-5.17-1.37-5.42-4.23s2.64-3.81,4.74-4.89C83.61,167.44,103.23,162.66,115.55,163.4Z" transform="translate(-42.13 -5)"/><path class="cls-2" d="M194.52,241.66A118,118,0,0,1,164.94,250c-16.62,2.5-33.19,2.48-49.62-1.41-5.11-1.21-10.11-2.8-14.48-5.85-5.32-3.72-5.19-7.67.33-11.1a27.74,27.74,0,0,1,8.14-3.34c-.29,1.62-2.23,2.49-1.36,4.14s2.68,2.28,4.41,2.69c8,1.92,16.29,2.28,24.5,2.71,13.17.7,26.14-1.1,39-3.56a6.55,6.55,0,0,1,5,.78C185.08,237.64,189.59,239.47,194.52,241.66Z" transform="translate(-42.13 -5)"/><path class="cls-2" d="M103.19,196.37a2.32,2.32,0,0,1-.15.51c-4.64,5.55-3.76,8.39,3.5,9.65,11.09,1.94,22.33,2.33,33.58,2.31,15.23,0,30.24-2.07,45.16-4.86a4.46,4.46,0,0,1,4.32,1,35.23,35.23,0,0,0,9.82,5.74,86.11,86.11,0,0,1-12.93,3.49,221.29,221.29,0,0,1-67.26,4.51,87.28,87.28,0,0,1-21.68-4.35,24.7,24.7,0,0,1-6-2.95c-4-2.84-4.19-6.05-.41-9.13C94.62,199.45,98.81,197.91,103.19,196.37Z" transform="translate(-42.13 -5)"/><path class="cls-2" d="M255.5,266.49c-.81,4.83-3.54,7.8-6.95,10.26-6.33,4.59-13.62,7-21.06,8.95-15.46,4.05-31.26,5.77-47.16,6.79a455.79,455.79,0,0,1-58.67,0c-11.59-.74-23.15-1.79-34.39-5A17.53,17.53,0,0,1,81,284.75a345.58,345.58,0,0,0,43.3,3.8c29,.78,57.84-.46,86.44-5.59a181.92,181.92,0,0,0,20.79-4.76C240,275.64,248.49,273.06,255.5,266.49Z" transform="translate(-42.13 -5)"/><path class="cls-2" d="M210.12,217.05c.43-1.54,1.78-1.75,2.79-2.31,9.28-5.17,18.18-10.86,24.86-19.36,3.43-4.36,5.85-9.19,5.65-14.91-.37-10.36-10.88-18.15-21.45-15.95-1.82.38-3.62.88-5.56,1.35a5.49,5.49,0,0,1,3.29-3c9.68-3.7,19.11-3.59,27.75,2.71,8.2,6,10.26,16,5.48,25.3-2.77,5.37-7,9.44-11.85,12.91C232,210.27,221.8,214.06,211.22,217A4.43,4.43,0,0,1,210.12,217.05Z" transform="translate(-42.13 -5)"/><path class="cls-3" d="M178.28,5a31.11,31.11,0,0,1,7.2,22.57c-.65,11.09-5.58,20.47-12.09,29.14-6.86,9.13-15.22,16.76-24.12,23.83-6.34,5-12.23,10.48-16.92,17.14-7.61,10.81-8.51,22.06-2.48,33.88,3.34,6.55,7.72,12.39,11.84,18.41,2.57,3.75,5.17,7.5,6.79,11.85a207.14,207.14,0,0,1-15.73-14.6c-6.49-6.65-12.72-13.53-17.22-21.74-7.17-13.09-6.2-22.92,3.39-34.38,6.72-8,15-14.38,23.15-20.81,7.73-6.08,15.53-12.08,22.35-19.23C177.77,37.07,181.69,23.93,178.28,5Z" transform="translate(-42.13 -5)"/><path class="cls-3" d="M210.77,65.14c-4.09,2.53-7.84,4.77-11.51,7.14-9.28,6-18.49,12.14-26,20.36-4.53,5-8,10.39-7.21,17.57a23,23,0,0,0,3.82,9.86c2.48,3.85,5.14,7.59,7.77,11.34,5.9,8.42,6,16.82.17,25.29-3.94,5.73-9.21,10-15,13.83a2,2,0,0,1-2,.4c1.15-1.53,2.42-3,3.46-4.65,5-7.91,4.53-15.89-1.44-23.1a71,71,0,0,1-9.77-14.35q-8.81-18.45,4-34.38c5.1-6.38,11.55-11.17,18.5-15.33a152.89,152.89,0,0,1,32.05-14A4,4,0,0,1,210.77,65.14Z" transform="translate(-42.13 -5)"/></svg>