<svg id="Layer_4" data-name="Layer 4" xmlns="http://www.w3.org/2000/svg" viewBox="0 0 258.62 290"><defs><style>.cls-1{fill:#63a944;}.cls-2{fill:#8cc63f;}.cls-3{fill:#fff;}</style></defs><polygon class="cls-1" points="234.89 266.05 129.31 290 23.74 266.05 0 0 258.62 0 234.89 266.05"/><polygon class="cls-2" points="129.31 276.36 129.31 276.36 222.29 255.27 243.82 13.3 129.31 13.3 129.31 276.36"/><path class="cls-3" d="M143.1,160.82a72.62,72.62,0,0,1-2.92,21.26,44.93,44.93,0,0,1-8.81,16.43,39.63,39.63,0,0,1-14.8,10.63,53.42,53.42,0,0,1-21,3.78,98.6,98.6,0,0,1-10.78-.58,90.71,90.71,0,0,1-11.06-1.91l1.72-18.87a5.65,5.65,0,0,1,2-4A7.29,7.29,0,0,1,82.38,186a19.48,19.48,0,0,1,4,.53,27.94,27.94,0,0,0,5.75.52,23.67,23.67,0,0,0,8.19-1.29,12.67,12.67,0,0,0,5.79-4.31,20.86,20.86,0,0,0,3.45-7.91,53.34,53.34,0,0,0,1.15-12.06V71.84H143.1Z" transform="translate(-20.69 -5)"/><path class="cls-3" d="M228.54,100.19a12.35,12.35,0,0,1-3,3.45,6.78,6.78,0,0,1-4.07,1.15,10,10,0,0,1-4.74-1.39L211,100.29a47.92,47.92,0,0,0-7.33-3.12,29.42,29.42,0,0,0-9.38-1.39q-9.1,0-13.56,3.88a13.2,13.2,0,0,0-4.45,10.49,9.64,9.64,0,0,0,2.68,7,22.93,22.93,0,0,0,7,4.79,76.47,76.47,0,0,0,10,3.69q5.61,1.68,11.45,3.73a104,104,0,0,1,11.44,4.84,38,38,0,0,1,10,7.09,33,33,0,0,1,7,10.49,37.42,37.42,0,0,1,2.68,14.89,48.38,48.38,0,0,1-3.36,18.1,42.22,42.22,0,0,1-9.72,14.7,45,45,0,0,1-15.71,9.87,58.81,58.81,0,0,1-21.21,3.59,67.66,67.66,0,0,1-13.27-1.34,79.35,79.35,0,0,1-13.07-3.78A76.9,76.9,0,0,1,150.28,202a50.43,50.43,0,0,1-9.67-7.48l9.58-15.13a7.82,7.82,0,0,1,3-2.78,8.41,8.41,0,0,1,4.11-1.05,10.86,10.86,0,0,1,5.8,1.82q2.93,1.81,6.61,4a52.78,52.78,0,0,0,8.48,4,31.58,31.58,0,0,0,11.3,1.82q8.81,0,13.69-3.87T208,171.07a11.66,11.66,0,0,0-2.68-7.95,20.7,20.7,0,0,0-7-5.08,65.2,65.2,0,0,0-9.92-3.54q-5.55-1.53-11.4-3.4a84,84,0,0,1-11.39-4.6,36.16,36.16,0,0,1-9.92-7.18,33.64,33.64,0,0,1-7-11.11A44.1,44.1,0,0,1,146,111.78a39.15,39.15,0,0,1,3.16-15.33,39.72,39.72,0,0,1,9.3-13.31,45.8,45.8,0,0,1,15-9.34,55.56,55.56,0,0,1,20.4-3.49,76.51,76.51,0,0,1,12.5,1,65.23,65.23,0,0,1,11.54,3A62.57,62.57,0,0,1,228.1,79a46.64,46.64,0,0,1,8.48,6.17Z" transform="translate(-20.69 -5)"/></svg>