<svg id="Layer_8" data-name="Layer 8" xmlns="http://www.w3.org/2000/svg" viewBox="0 0 290 146.97"><defs><style>.cls-1{fill:#787bb3;}.cls-2{fill:#010101;}.cls-3{fill:#fff;}</style></defs><g id="g3466"><g id="g3472"><path id="path3474" class="cls-1" d="M150,223.48c80.08,0,145-32.9,145-73.48S230.08,76.52,150,76.52,5,109.42,5,150s64.92,73.48,145,73.48" transform="translate(-5 -76.52)"/></g></g><g id="g3476"><g id="g3478"><g id="g3484"><path id="path3486" class="cls-2" d="M81.09,159.11c6.58,0,11.5-1.21,14.61-3.61s5.2-6.47,6.32-12.2c1-5.35.64-9.09-1.18-11.1s-5.88-3.11-12-3.11H78.37l-5.84,30Zm-34.42,37a1.62,1.62,0,0,1-1.26-.6,1.65,1.65,0,0,1-.35-1.35l15.46-79.55a1.64,1.64,0,0,1,1.61-1.32H95.45c10.47,0,18.27,2.84,23.17,8.45s6.45,13.52,4.52,23.42a36.25,36.25,0,0,1-11.38,20.38,32.31,32.31,0,0,1-12.14,7.27A54.66,54.66,0,0,1,83,174.94H69.46l-3.85,19.82A1.65,1.65,0,0,1,64,196.09Z" transform="translate(-5 -76.52)"/></g><g id="g3488"><path id="path3490" class="cls-3" d="M79.72,130.73h9.17c7.33,0,9.87,1.61,10.73,2.57,1.44,1.59,1.71,4.94.79,9.69-1,5.32-3,9.1-5.71,11.22s-7.4,3.26-13.61,3.26H74.52Zm15.73-19.1H62.13a3.27,3.27,0,0,0-3.21,2.65L43.46,193.82a3.26,3.26,0,0,0,3.21,3.9H64a3.27,3.27,0,0,0,3.21-2.65l3.6-18.49H83a56.41,56.41,0,0,0,17.18-2.23,34,34,0,0,0,12.75-7.63,37.94,37.94,0,0,0,11.87-21.26c2-10.43.38-18.78-4.9-24.82s-13.43-9-24.4-9m-24.9,49.12H81.09q10.47,0,15.61-3.95t6.92-13.18q1.72-8.88-1.56-12.52t-13.17-3.64H77l-6.47,33.29m24.9-45.85q15,0,21.94,7.9t4.14,22a35.27,35.27,0,0,1-3.83,10.65,35.64,35.64,0,0,1-7,8.84,30.77,30.77,0,0,1-11.53,6.92A53.41,53.41,0,0,1,83,173.3H68.11L64,194.45H46.67L62.13,114.9H95.45" transform="translate(-5 -76.52)"/></g><g id="g3492"><path id="path3494" class="cls-2" d="M162.87,174.94a1.62,1.62,0,0,1-1.26-.6,1.64,1.64,0,0,1-.35-1.35l6.84-35.2c.65-3.34.49-5.75-.45-6.76-.58-.62-2.31-1.66-7.43-1.66H147.83l-8.59,44.24a1.65,1.65,0,0,1-1.61,1.33H120.44a1.64,1.64,0,0,1-1.61-1.95l15.46-79.55a1.63,1.63,0,0,1,1.61-1.32h17.19a1.65,1.65,0,0,1,1.26.59,1.67,1.67,0,0,1,.35,1.36L151,113.27h13.32c10.16,0,17,1.79,21.05,5.47s5.37,9.76,3.8,17.86l-7.2,37a1.64,1.64,0,0,1-1.6,1.33Z" transform="translate(-5 -76.52)"/></g><g id="g3496"><path id="path3498" class="cls-3" d="M153.09,90.48H135.9a3.28,3.28,0,0,0-3.22,2.65l-15.46,79.55a3.29,3.29,0,0,0,3.22,3.9h17.19a3.28,3.28,0,0,0,3.21-2.65L149.18,131h11c5.11,0,6.18,1.1,6.22,1.14.31.34.72,1.88.05,5.34l-6.84,35.2a3.25,3.25,0,0,0,.68,2.7,3.28,3.28,0,0,0,2.53,1.2h17.47a3.29,3.29,0,0,0,3.21-2.65l7.19-37c1.69-8.69.25-15.21-4.29-19.38-4.32-4-11.57-5.9-22.16-5.9H153l3.35-17.25a3.26,3.26,0,0,0-3.21-3.9m0,3.27L149,114.9h15.31q14.46,0,20,5t3.29,16.33l-7.19,37H162.87l6.84-35.19q1.17-6-.86-8.2c-1.35-1.45-4.23-2.18-8.62-2.18H146.48l-8.85,45.57H120.44L135.9,93.75h17.19" transform="translate(-5 -76.52)"/></g><g id="g3500"><path id="path3502" class="cls-2" d="M216.34,159.11c6.58,0,11.5-1.21,14.61-3.61s5.2-6.47,6.32-12.2c1-5.35.64-9.09-1.18-11.1s-5.88-3.11-12-3.11H213.62l-5.84,30Zm-34.42,37a1.62,1.62,0,0,1-1.26-.6,1.65,1.65,0,0,1-.35-1.35l15.46-79.55a1.64,1.64,0,0,1,1.61-1.32H230.7c10.48,0,18.27,2.84,23.17,8.45s6.45,13.52,4.52,23.42A36.25,36.25,0,0,1,247,165.52a32.31,32.31,0,0,1-12.14,7.27,54.66,54.66,0,0,1-16.67,2.15H204.71l-3.85,19.82a1.65,1.65,0,0,1-1.61,1.33Z" transform="translate(-5 -76.52)"/></g><g id="g3504"><path id="path3506" class="cls-3" d="M215,130.73h9.17c7.33,0,9.87,1.61,10.73,2.57,1.44,1.59,1.71,4.94.79,9.69-1,5.32-3,9.1-5.71,11.22s-7.4,3.26-13.61,3.26h-6.57Zm15.73-19.1H197.38a3.27,3.27,0,0,0-3.21,2.65l-15.46,79.54a3.26,3.26,0,0,0,3.21,3.9h17.33a3.27,3.27,0,0,0,3.21-2.65l3.6-18.49H218.2a56.41,56.41,0,0,0,17.18-2.23,34,34,0,0,0,12.75-7.63A37.94,37.94,0,0,0,260,145.46c2-10.43.38-18.78-4.9-24.82s-13.43-9-24.4-9m-24.9,49.12h10.54q10.47,0,15.61-3.95t6.92-13.18q1.73-8.88-1.56-12.52t-13.17-3.64H212.27l-6.47,33.29m24.9-45.85q15,0,21.94,7.9t4.14,22a34.64,34.64,0,0,1-10.88,19.49,30.77,30.77,0,0,1-11.53,6.92,53.41,53.41,0,0,1-16.17,2.06H203.36l-4.11,21.15H181.92l15.46-79.55H230.7" transform="translate(-5 -76.52)"/></g></g></g></svg>