<svg id="Layer_7" data-name="Layer 7" xmlns="http://www.w3.org/2000/svg" viewBox="0 0 288.76 290.5"><defs><style>.cls-1,.cls-3{fill:#3b51a3;}.cls-1{stroke:#231f20;stroke-miterlimit:10;}.cls-2{fill:#ede81f;}</style></defs><path class="cls-1" d="M81.49,69.08V48.78c0-8-1.24-16.87,3.56-23.8,5.34-7.71,16.28-12.24,24.87-15,12.48-4,25.62-4.82,38.63-5,17.64-.22,36.43.71,52.23,9.45l.79.44c.52.3,1,.61,1.53.92a40.42,40.42,0,0,1,7.4,5.89c6.28,6.38,7.88,15.62,8.15,24.26.32,10.44.15,20.94.25,31.39.1,10.21.07,20.42-.39,30.62-.43,9.24-2.75,18.92-9.22,25.48-5.38,5.46-13,8.1-20.53,9.41-15,2.58-30.18,1.44-45.26,1q-10.67-.31-21.33-.67c-8-.27-16.49-.69-24.17,1.89a38.52,38.52,0,0,0-19.47,15.1,45.79,45.79,0,0,0-4.76,9.16A37.44,37.44,0,0,0,71,182.3c-.05,2.79-.05,5.58,0,8.38,0,6.64.1,13.29.11,19.94,0,.49.12,8.37-.24,8.37-6.56,0-13.57.1-20.31,0-6.16,0-12.37.56-17.93-2.49-8.7-4.76-15.42-14.33-19.07-23.41-9-22.31-9.27-48-4.93-71.46a66.72,66.72,0,0,1,9.62-24.1c3.41-5.24,7.84-10.16,13.42-13.22C38.29,80.71,45.39,81,52.73,81c5.71,0,11.43.08,17.15.12,11.67.08,23.34.06,35,0,13.19,0,26.38-.11,39.57-.11h6V69.51Z" transform="translate(-5.37 -4.5)"/><path class="cls-2" d="M218.51,230.92v20.3c0,8,1.24,16.87-3.56,23.8-5.34,7.71-16.28,12.24-24.87,15-12.48,4-25.62,4.82-38.63,5-17.64.22-36.43-.71-52.23-9.45l-.79-.44c-.52-.3-1-.61-1.53-.92a40.42,40.42,0,0,1-7.4-5.89c-6.28-6.38-7.88-15.62-8.15-24.26-.32-10.44-.15-20.94-.25-31.39C81,212.41,81,202.2,81.49,192c.43-9.24,2.75-18.92,9.22-25.48,5.38-5.46,13-8.1,20.53-9.41,15-2.58,30.18-1.44,45.26-1q10.67.31,21.33.67c8,.27,16.49.69,24.17-1.89a38.52,38.52,0,0,0,19.47-15.1,45.79,45.79,0,0,0,4.76-9.16A37.44,37.44,0,0,0,229,117.7c0-2.79,0-5.58,0-8.38,0-6.64-.1-13.29-.11-19.94,0-.49-.12-8.37.24-8.37,6.56,0,13.57-.1,20.31-.05,6.16.05,12.37-.56,17.93,2.49,8.7,4.76,15.42,14.33,19.07,23.41,9,22.31,9.27,48,4.93,71.46a66.72,66.72,0,0,1-9.62,24.1c-3.41,5.24-7.84,10.16-13.42,13.22-6.65,3.65-13.75,3.37-21.09,3.37-5.71,0-11.43-.08-17.15-.12-11.67-.08-23.34-.06-35,0-13.19,0-26.38.11-39.57.11h-6v11.51Z" transform="translate(-5.37 -4.5)"/><circle class="cls-2" cx="104.13" cy="32.93" r="11.53"/><circle class="cls-3" cx="185.13" cy="258.07" r="11.53"/></svg>